<svg xmlns="http://www.w3.org/2000/svg" xmlns:xlink="http://www.w3.org/1999/xlink" viewBox="0 0 100 100"><path fill="#00a7a7" d="M59.088,74.644c4.354,4.354,11.365,4.4,15.661,0.105c4.296-4.296,4.249-11.307-0.105-15.661 l-5.733-5.733c-4.354-4.354-11.365-4.4-15.661-0.105s-4.249,11.307,0.105,15.661L59.088,74.644z"/><path fill="#a3a3cd" d="M46.645,68.911c4.354-4.354,4.4-11.365,0.105-15.661s-11.307-4.249-15.661,0.105l-5.733,5.733 c-4.354,4.354-4.4,11.365-0.105,15.661c4.296,4.296,11.307,4.249,15.661-0.105L46.645,68.911z"/><path fill="#a1d3a2" d="M74.644,40.912c4.354-4.354,4.4-11.365,0.105-15.661c-4.296-4.296-11.307-4.249-15.661,0.105 l-5.733,5.733c-4.354,4.354-4.4,11.365-0.105,15.661s11.307,4.249,15.661-0.105L74.644,40.912z"/><path fill="#fcba7f" d="M39,34c0,6.075,4.925,11,11,11s11-4.925,11-11v-8c0-6.075-4.925-11-11-11s-11,4.925-11,11V34z"/><path fill="#fcba7f" d="M61,26v8c0,5.34-3.8,9.79-8.84,10.79c-2.86-4.27-2.4-10.11,1.38-13.88l5.65-5.66 c0.5-0.5,1.04-0.94,1.61-1.33C60.93,24.59,61,25.29,61,26z"/><path fill="#39c2d8" d="M39,74c0,6.075,4.925,11,11,11s11-4.925,11-11v-8c0-6.075-4.925-11-11-11s-11,4.925-11,11V74z"/><path fill="#f37e98" d="M34.633,61C40.911,61,46,56.075,46,50s-5.089-11-11.367-11h-8.267C20.089,39,15,43.925,15,50 s5.089,11,11.367,11H34.633z"/><path fill="#52bfa1" d="M73.633,61C79.911,61,85,56.075,85,50s-5.089-11-11.367-11h-8.267C59.089,39,54,43.925,54,50 s5.089,11,11.367,11H73.633z"/><path fill="#f15b6c" d="M31.247,46.804C35.652,51.208,42.704,51.296,47,47s4.208-11.348-0.196-15.753l-5.8-5.8 c-4.404-4.404-11.457-4.492-15.753-0.196S21.043,36.6,25.448,41.004L31.247,46.804z"/><path fill="#39c2d8" d="M61,66v8c0,0.71-0.07,1.41-0.2,2.08c-0.57-0.39-1.11-0.83-1.61-1.33l-5.65-5.66 c-3.78-3.77-4.24-9.61-1.38-13.88C57.2,56.21,61,60.66,61,66z"/><path fill="#1f212b" d="M86.035,50.015c0-5.284-3.457-9.894-8.396-11.442c2.396-4.588,1.582-10.292-2.154-14.028 c-3.737-3.736-9.44-4.552-14.028-2.153c-1.549-4.939-6.158-8.396-11.442-8.396s-9.894,3.457-11.442,8.396 c-4.589-2.395-10.291-1.583-14.028,2.154c-3.736,3.736-4.55,9.44-2.154,14.028c-4.938,1.549-8.396,6.158-8.396,11.442 s3.457,9.894,8.396,11.442c-2.396,4.588-1.582,10.292,2.154,14.028c3.736,3.735,9.439,4.55,14.028,2.153 c1.549,4.939,6.158,8.396,11.442,8.396s9.894-3.457,11.442-8.396c4.587,2.393,10.29,1.582,14.028-2.154 c3.736-3.736,4.55-9.44,2.154-14.028C82.578,59.908,86.035,55.299,86.035,50.015z M62,34.152l-0.003-8.326 c-0.001-0.465-0.039-0.927-0.095-1.385c3.897-2.319,8.921-1.729,12.169,1.517c3.237,3.238,3.834,8.246,1.534,12.141 c-0.495-0.058-0.993-0.098-1.489-0.099l-8.732,0.003c-1.53,0-2.99,0.284-4.344,0.78C61.664,37.337,61.997,35.77,62,34.152z M57.711,49.479c-1.242-0.392-2.403-1.005-3.443-1.814c0.237-1.047,0.625-2.039,1.147-2.952c1.116-0.56,2.151-1.288,3.062-2.187 c0.723-0.713,1.33-1.508,1.838-2.354c1.529-0.741,3.246-1.168,5.068-1.169L74.115,39c0.332,0,0.664,0.018,0.996,0.046 c-0.031,0.183-0.017,0.373,0.056,0.55c0.08,0.194,0.222,0.348,0.395,0.457c-0.204,0.243-0.416,0.481-0.64,0.706l-6.008,6.006 c-1.274,1.268-2.805,2.184-4.472,2.711C62.247,48.846,59.907,48.846,57.711,49.479z M61.088,49.999 c-0.005,0-0.009,0.001-0.014,0.001c-0.003,0-0.006,0-0.009,0C61.073,50,61.081,49.999,61.088,49.999z M56.267,50.004 c-0.762,0.329-1.493,0.742-2.187,1.235c-0.048-0.408-0.079-0.82-0.08-1.236c0.001-0.419,0.031-0.83,0.079-1.237 C54.768,49.256,55.498,49.672,56.267,50.004z M50.015,15.994c4.798,0,8.928,3.419,9.818,8.13c0.062,0.332,0.288,0.609,0.6,0.738 c0.166,0.069,0.345,0.087,0.519,0.063c0.026,0.3,0.045,0.6,0.046,0.902L61,34.151c-0.004,1.866-0.487,3.656-1.382,5.244 c-2.031,1.043-3.722,2.62-4.89,4.535c-0.951,0.449-1.962,0.76-3.013,0.923c-0.502-0.794-0.892-1.638-1.173-2.511 C50.839,41.289,51,40.191,51,39.065c0-1.179-0.171-2.331-0.497-3.43c0.514-1.659,1.421-3.221,2.731-4.531 c0.195-0.195,0.195-0.512,0-0.707s-0.512-0.195-0.707,0c-1.126,1.125-1.974,2.423-2.561,3.806c-0.584-1.316-1.4-2.531-2.444-3.581 l-5.946-5.95c-0.391-0.391-0.815-0.745-1.255-1.078C41.412,19.161,45.4,15.994,50.015,15.994z M50,54 c-0.401,0.001-0.799,0.021-1.193,0.06c-0.384-0.544-0.806-1.068-1.29-1.555c-0.22-0.219-0.453-0.42-0.687-0.62 C46.931,51.27,46.999,50.643,47,50c-0.002-0.631-0.067-1.251-0.165-1.863c0.234-0.2,0.468-0.4,0.689-0.62 c0.488-0.49,0.918-1.021,1.308-1.577c0.386,0.038,0.776,0.06,1.171,0.06c0.417-0.001,0.831-0.025,1.24-0.067 c0.383,0.538,0.803,1.059,1.285,1.541c0.209,0.208,0.43,0.397,0.651,0.588c-0.108,0.633-0.179,1.278-0.18,1.94 c0.001,0.658,0.07,1.305,0.178,1.942c-0.219,0.189-0.44,0.377-0.648,0.584c-0.477,0.479-0.898,0.997-1.283,1.537 C50.836,54.024,50.421,54.001,50,54z M50.625,55.032c-0.223,0.386-0.427,0.781-0.606,1.188c-0.174-0.406-0.375-0.803-0.597-1.191 C49.615,55.019,49.806,55,50,55C50.211,55,50.417,55.02,50.625,55.032z M46.588,53.013c0.073,0.068,0.15,0.129,0.221,0.2 c0.32,0.321,0.608,0.662,0.88,1.012c-0.571,0.11-1.126,0.272-1.67,0.461C46.253,54.148,46.435,53.587,46.588,53.013z M46.012,45.307 c0.551,0.193,1.116,0.355,1.7,0.468c-0.278,0.359-0.571,0.708-0.896,1.035c-0.071,0.071-0.149,0.131-0.221,0.199 C46.441,46.428,46.252,45.858,46.012,45.307z M49.444,44.971c0.216-0.381,0.414-0.771,0.586-1.172 c0.175,0.399,0.374,0.788,0.594,1.17C50.417,44.981,50.212,45,50.003,45C49.814,45,49.63,44.981,49.444,44.971z M53.236,53.236 c0.061-0.06,0.127-0.111,0.189-0.17c0.151,0.553,0.333,1.097,0.564,1.622c-0.528-0.184-1.067-0.342-1.626-0.453 C52.635,53.889,52.921,53.553,53.236,53.236z M53.428,46.941c-0.063-0.06-0.132-0.113-0.194-0.175 c-0.317-0.318-0.603-0.654-0.874-0.998c0.558-0.11,1.1-0.272,1.633-0.458C53.763,45.834,53.581,46.382,53.428,46.941z M39.044,24.917c0.184,0.032,0.375,0.018,0.553-0.055c0.149-0.062,0.276-0.159,0.377-0.277c0.311,0.25,0.613,0.512,0.895,0.795 l5.945,5.949c1.228,1.234,2.117,2.714,2.641,4.328c-0.614,2.193-0.605,4.525,0.039,6.712c-0.274,0.877-0.662,1.711-1.148,2.492 c-1.078-0.163-2.104-0.479-3.056-0.927c-0.522-0.864-1.145-1.677-1.888-2.407c-0.911-0.894-1.942-1.624-3.053-2.188 c-0.857-1.542-1.346-3.31-1.347-5.187L39,25.813C39,25.515,39.018,25.216,39.044,24.917z M46,50 c-0.001,0.402-0.027,0.799-0.071,1.19c-0.663-0.465-1.367-0.86-2.105-1.178c0.732-0.315,1.437-0.709,2.107-1.177 C45.973,49.22,45.999,49.608,46,50z M25.958,25.958c3.236-3.235,8.241-3.835,12.136-1.537c-0.056,0.463-0.094,0.928-0.094,1.392 l0.003,8.339c0,1.625,0.336,3.175,0.94,4.587c-1.315-0.471-2.711-0.732-4.15-0.736L26.189,38c-0.586,0-1.167,0.054-1.743,0.136 C22.12,34.236,22.71,29.207,25.958,25.958z M15.994,50.015c0-4.622,3.176-8.614,7.62-9.698c0.332,0.441,0.686,0.868,1.076,1.261 c0.098,0.099,0.227,0.147,0.354,0.147s0.255-0.049,0.353-0.146c0.196-0.195,0.196-0.512,0.002-0.707 c-0.286-0.287-0.551-0.594-0.803-0.91c0.113-0.099,0.207-0.222,0.266-0.365c0.07-0.168,0.087-0.348,0.062-0.523 C25.343,39.028,25.765,39,26.189,39l8.603,0.003c1.714,0.005,3.365,0.397,4.866,1.115c1.165,1.958,2.878,3.556,4.936,4.589 c0.536,0.947,0.926,1.963,1.156,3.024c-1.037,0.797-2.183,1.386-3.384,1.762c-1.06-0.3-2.166-0.463-3.3-0.463 c-1.128,0-2.23,0.162-3.286,0.461c-1.627-0.509-3.159-1.398-4.446-2.681c-0.195-0.193-0.512-0.195-0.707,0.002 c-0.194,0.195-0.194,0.512,0.002,0.707c1.093,1.089,2.35,1.913,3.69,2.491c-1.361,0.587-2.615,1.423-3.695,2.498l-0.641,0.64 c-0.195,0.194-0.195,0.512,0,0.707s0.512,0.195,0.707,0l0.64-0.639c1.263-1.257,2.783-2.163,4.441-2.681 c1.078,0.307,2.19,0.465,3.304,0.465c1.111,0,2.22-0.158,3.296-0.463c1.218,0.38,2.355,0.977,3.375,1.761 c-0.232,1.055-0.616,2.055-1.132,2.975c-1.121,0.556-2.163,1.28-3.079,2.174c-0.763,0.744-1.401,1.576-1.925,2.463 c-1.462,0.69-3.091,1.09-4.816,1.093l-8.588-0.003c-0.427-0.001-0.851-0.033-1.272-0.081c0.016-0.162-0.007-0.329-0.071-0.484 c-0.062-0.149-0.159-0.276-0.277-0.377c0.25-0.311,0.512-0.613,0.795-0.895l0.807-0.807c0.195-0.195,0.195-0.512,0-0.707 s-0.512-0.195-0.707,0l-0.807,0.807c-0.391,0.391-0.745,0.815-1.078,1.255C19.161,58.618,15.994,54.63,15.994,50.015z M42.828,57.633c-0.238,0.241-0.488,0.471-0.747,0.69c0.052-0.053,0.097-0.11,0.151-0.162 C42.423,57.974,42.626,57.804,42.828,57.633z M38.003,65.715L38,73.956c0,0.549,0.051,1.093,0.128,1.632 c-3.897,2.32-8.923,1.729-12.17-1.517c-3.257-3.258-3.841-8.307-1.49-12.212c0.572,0.081,1.151,0.136,1.737,0.138L34.794,62 c1.445-0.003,2.825-0.267,4.113-0.725C38.319,62.666,38.007,64.167,38.003,65.715z M50.015,84.035c-4.798,0-8.928-3.419-9.818-8.13 c-0.001-0.007-0.005-0.012-0.006-0.019c0.357-0.279,0.705-0.574,1.034-0.901l-1.047,0.862c-0.077-0.305-0.289-0.559-0.581-0.68 c-0.123-0.051-0.253-0.076-0.383-0.076c-0.049,0-0.095,0.014-0.143,0.021C39.028,74.729,39,74.344,39,73.956l0.003-8.24 c0.005-1.784,0.457-3.502,1.303-5.035c2.08-1.045,3.813-2.656,4.996-4.628c0.956-0.445,1.972-0.753,3.028-0.912 c0.499,0.798,0.887,1.645,1.161,2.521c-0.32,1.095-0.49,2.24-0.49,3.412c0,1.123,0.161,2.22,0.455,3.273 c-0.514,1.59-1.389,3.088-2.646,4.349c-0.194,0.195-0.194,0.512,0.002,0.707c0.098,0.097,0.225,0.146,0.353,0.146 s0.257-0.049,0.354-0.147c1.062-1.066,1.869-2.289,2.445-3.591c0.597,1.404,1.458,2.697,2.567,3.81l6.014,6.01 c0.352,0.35,0.733,0.67,1.124,0.975C58.519,80.949,54.571,84.035,50.015,84.035z M60.997,73.941 c-0.001,0.388-0.029,0.774-0.072,1.157c-0.165-0.018-0.335,0.003-0.493,0.069c-0.198,0.082-0.355,0.228-0.464,0.405 c-0.248-0.207-0.49-0.422-0.719-0.65l-6.012-6.008c-1.285-1.29-2.211-2.842-2.737-4.534c0.648-2.185,0.657-4.52,0.036-6.712 c0.285-0.886,0.682-1.731,1.182-2.521c1.056,0.165,2.06,0.474,2.994,0.91c0.531,0.873,1.167,1.693,1.926,2.427 c0.906,0.877,1.93,1.596,3.034,2.155c0.842,1.512,1.323,3.24,1.326,5.074L60.997,73.941z M74.071,74.071 c-3.256,3.255-8.302,3.841-12.206,1.494c0.077-0.535,0.13-1.076,0.131-1.623L62,65.714c-0.003-1.585-0.334-3.097-0.925-4.478 c1.362,0.491,2.812,0.761,4.308,0.764l8.72-0.003c0.498-0.001,0.992-0.041,1.483-0.1C77.909,65.797,77.318,70.824,74.071,74.071z M76.619,59.665c-0.303-0.389-0.622-0.767-0.972-1.118l-1.401-1.4c-0.195-0.195-0.512-0.195-0.707,0s-0.195,0.512,0,0.707l1.4,1.399 c0.226,0.227,0.439,0.465,0.644,0.71c-0.183,0.109-0.332,0.268-0.416,0.47c-0.069,0.166-0.087,0.343-0.064,0.516 c-0.333,0.029-0.667,0.047-1.002,0.048L65.384,61c-1.772-0.003-3.476-0.405-5.02-1.142c-1.165-1.952-2.887-3.546-4.956-4.576 c-0.526-0.922-0.908-1.912-1.14-2.944c1.056-0.822,2.225-1.426,3.451-1.814C58.797,50.834,59.922,51,61.074,51 c1.154,0,2.282-0.167,3.362-0.477c1.64,0.518,3.183,1.416,4.48,2.712l0.619,0.618c0.195,0.195,0.512,0.195,0.707,0 s0.195-0.513,0-0.707l-0.619-0.618c-1.106-1.105-2.38-1.941-3.736-2.527c1.374-0.595,2.641-1.441,3.733-2.528l6.01-6.008 c0.346-0.347,0.662-0.722,0.963-1.108c4.351,1.145,7.443,5.096,7.443,9.656C84.035,54.566,80.956,58.511,76.619,59.665z"/><path fill="#1f212b" d="M71.743 54.646c-.195-.195-.512-.195-.707 0s-.195.512 0 .707l.61.61c.098.098.226.146.354.146s.256-.049.354-.146c.195-.195.195-.512 0-.707L71.743 54.646zM27.5 56.834c.128 0 .256-.049.354-.146l1-.999c.195-.195.195-.512 0-.707s-.512-.195-.707 0l-1 .999c-.195.195-.195.512 0 .707C27.244 56.785 27.372 56.834 27.5 56.834z"/></svg>